<?xml version="1.0" standalone="no"?><!DOCTYPE svg PUBLIC "-//W3C//DTD SVG 1.1//EN" "http://www.w3.org/Graphics/SVG/1.1/DTD/svg11.dtd"><svg t="1737623898619" class="icon" viewBox="0 0 1024 1024" version="1.1" xmlns="http://www.w3.org/2000/svg" p-id="8176" xmlns:xlink="http://www.w3.org/1999/xlink" width="200" height="200"><path d="M243.809524 268.190476v560.761905h499.809524v73.142857h-463.238096A109.714286 109.714286 0 0 1 170.666667 792.380952V268.190476h73.142857z m540.330666-146.041905a73.142857 73.142857 0 0 1 73.142858 73.142858v515.705904a73.142857 73.142857 0 0 1-73.142858 73.142857H292.327619V195.291429a73.142857 73.142857 0 0 1 73.142857-73.142858h418.669714z m0 73.142858H365.470476v515.705904h418.669714V195.291429z m-186.88 85.089523v33.450667c10.825143 2.681905 20.187429 6.875429 28.038096 12.653714 9.99619 7.338667 19.18781 18.18819 27.696762 32.426667l6.631619 11.117714-55.052191 28.696381-5.851428-9.99619c-7.94819-13.507048-17.212952-19.504762-28.818286-19.504762-7.265524 0-12.824381 1.828571-17.115429 5.436952a13.897143 13.897143 0 0 0-5.558857 11.434667c0 4.169143 1.316571 7.241143 4.169143 9.923048 3.437714 3.193905 11.385905 7.68 23.527619 13.019428l11.702857 5.071238c11.264 4.973714 20.72381 9.679238 28.574476 14.165334 9.97181 5.753905 17.627429 11.385905 22.893715 16.944761 15.164952 15.262476 22.869333 34.03581 22.869333 55.661715 0 20.967619-6.826667 39.69219-20.309333 55.686095a94.72 94.72 0 0 1-43.300572 29.062095v36.08381h-54.320762v-34.133334c-19.748571-4.315429-35.547429-11.849143-47.274666-22.79619-13.653333-12.751238-23.405714-31.744-29.500953-56.734476l-3.023238-12.434286 60.806095-11.824762 3.291429 10.337524c4.534857 14.336 9.874286 24.137143 15.116191 29.037714 5.36381 4.608 12.873143 6.997333 23.04 6.997334 9.606095 0 17.16419-2.706286 23.30819-8.192 5.705143-5.12 8.43581-11.459048 8.43581-19.821715 0-7.216762-2.121143-12.385524-6.290286-16.213333a85.74781 85.74781 0 0 0-13.604572-9.020952 227.108571 227.108571 0 0 0-19.187809-9.45981l-12.214857-5.290667c-20.23619-8.94781-33.962667-17.359238-41.423238-25.673143a70.436571 70.436571 0 0 1-19.992381-50.078476c0-9.167238 1.609143-17.798095 4.851809-25.990095 3.218286-7.94819 7.753143-15.11619 13.726476-21.674667 5.851429-6.290286 12.995048-11.727238 21.406477-16.359619 3.754667-2.023619 7.728762-3.85219 11.946666-5.485714l6.460953-2.267429V280.380952h54.345142z" p-id="8177"></path></svg>